<?xml version="1.0" standalone="no"?>
<!DOCTYPE svg PUBLIC "-//W3C//DTD SVG 20010904//EN"
 "http://www.w3.org/TR/2001/REC-SVG-20010904/DTD/svg10.dtd">
<svg version="1.0" xmlns="http://www.w3.org/2000/svg"
 width="600.000000pt" height="600.000000pt" viewBox="0 0 600.000000 600.000000"
 preserveAspectRatio="xMidYMid meet">
<g transform="translate(0.000000,600.000000) scale(0.100000,-0.100000)"
fill="#000000" stroke="none">
<path d="M3195 4504 c-33 -7 -71 -16 -85 -19 -42 -10 -173 -56 -205 -73 -16
-9 -34 -15 -38 -14 -5 1 -5 -3 -1 -9 5 -9 2 -10 -10 -6 -9 4 -15 3 -12 -2 3
-4 -6 -13 -19 -19 -14 -7 -25 -16 -25 -21 0 -5 -7 -17 -16 -26 -32 -31 -43
-150 -25 -273 4 -29 4 -55 -1 -58 -14 -9 -69 17 -61 29 3 6 1 7 -5 3 -7 -4
-14 3 -18 19 -3 14 -10 25 -16 25 -5 0 -7 4 -4 8 3 5 -8 24 -25 43 -31 35 -29
29 12 -54 24 -50 79 -107 102 -107 7 0 21 6 31 13 16 12 17 20 7 85 -24 157
-8 249 52 295 100 76 368 157 521 157 36 0 47 3 36 10 -21 14 -125 11 -195 -6z"/>
<path d="M3298 4455 c-88 -44 -154 -90 -175 -121 -22 -34 -12 -103 27 -198 29
-70 43 -88 52 -68 4 10 95 82 104 82 7 0 -2 -178 -12 -222 l-6 -27 108 30 c96
26 178 45 279 63 17 3 43 8 59 12 20 4 26 3 22 -5 -4 -6 -2 -11 3 -11 15 0 14
15 -3 29 -10 8 -27 8 -67 0 -30 -6 -76 -15 -104 -19 -88 -14 -119 -22 -145
-35 -14 -7 -41 -15 -61 -18 -20 -2 -42 -7 -47 -11 -8 -5 -10 26 -7 99 4 84 2
110 -9 121 -16 15 -33 18 -38 6 -1 -4 -20 -18 -40 -31 -21 -12 -38 -28 -38
-34 0 -6 -6 -2 -14 8 -8 11 -12 23 -10 27 3 5 0 8 -7 8 -7 0 -10 3 -7 6 3 3
-2 27 -12 55 -20 54 -20 103 -1 134 16 25 74 61 141 90 28 12 47 25 43 30 -5
4 -3 5 4 1 6 -3 27 3 45 14 31 19 32 20 8 19 -14 0 -55 -15 -92 -34z"/>
<path d="M1218 4204 c39 -73 487 -443 509 -420 3 3 -7 21 -22 40 -33 44 -55
113 -56 180 0 38 -3 46 -9 31 -14 -32 -11 -100 6 -140 8 -20 13 -39 11 -41 -3
-3 -24 10 -48 29 -24 18 -52 36 -61 40 -10 3 -18 11 -18 17 0 5 -6 10 -13 10
-8 0 -25 12 -39 28 -42 45 -86 82 -97 82 -5 0 -13 5 -17 12 -5 7 -3 8 7 3 12
-8 12 -6 0 8 -7 9 -17 15 -21 12 -7 -5 -22 19 -24 39 -1 5 -8 10 -17 12 -19 2
-59 39 -53 48 2 3 1 4 -3 1 -3 -3 -15 3 -26 12 -19 17 -20 17 -9 -3z"/>
<path d="M4775 4210 c-4 -6 -11 -8 -16 -4 -5 3 -8 2 -7 -3 3 -8 -97 -113 -107
-113 -3 0 -6 -3 -7 -7 -3 -12 -52 -48 -61 -45 -5 1 -6 -2 -2 -8 3 -5 3 -10 -2
-10 -4 0 -25 -16 -45 -35 -21 -18 -38 -31 -38 -28 0 3 -11 -5 -24 -18 -31 -31
-115 -93 -120 -88 -2 2 3 31 12 64 11 42 13 72 7 100 -9 39 -9 39 -16 -30 -8
-81 -20 -117 -56 -163 -14 -18 -23 -35 -20 -38 5 -5 83 44 157 98 138 100 388
338 356 338 -3 0 -8 -5 -11 -10z"/>
<path d="M1190 4190 c0 -6 4 -18 9 -28 14 -25 24 -55 26 -73 1 -9 12 -36 23
-60 11 -24 26 -65 33 -91 6 -27 16 -48 21 -48 6 0 7 -7 4 -16 -4 -9 -2 -22 3
-28 6 -7 24 -50 41 -96 17 -47 33 -92 37 -100 3 -8 7 -20 8 -26 5 -22 57 -104
66 -104 5 0 9 -5 9 -11 0 -7 -11 -9 -29 -6 -23 5 -30 2 -40 -19 -10 -22 -6
-33 32 -92 37 -58 48 -67 75 -69 57 -4 71 -7 66 -15 -3 -5 9 -11 26 -14 17 -4
33 -11 36 -15 3 -5 16 -9 30 -9 13 0 24 -4 24 -9 0 -5 16 -12 35 -15 19 -4 35
-11 35 -16 0 -9 57 -25 78 -21 6 1 12 -2 12 -6 0 -13 58 -35 71 -27 8 4 9 3 5
-4 -4 -7 -1 -12 6 -12 14 0 143 -46 170 -61 10 -5 29 -9 43 -9 16 0 24 -4 20
-11 -4 -6 -1 -9 6 -8 21 5 108 -24 103 -33 -3 -4 1 -8 9 -8 8 0 40 -9 73 -20
70 -25 83 -28 107 -29 11 -1 15 -6 11 -12 -4 -8 0 -9 15 -4 12 3 21 2 21 -4 0
-5 17 -13 38 -17 20 -3 47 -12 59 -20 12 -8 34 -14 48 -14 14 0 25 -4 25 -9 0
-5 29 -17 64 -26 l64 -17 -19 -55 c-20 -54 -20 -54 1 -84 12 -16 25 -27 29
-24 4 2 19 -6 32 -18 13 -12 27 -22 32 -22 4 0 12 -7 17 -15 5 -8 10 -11 10
-6 0 5 10 1 23 -10 35 -30 65 -44 82 -38 8 3 15 10 15 14 0 4 11 11 25 14 14
4 23 11 20 16 -3 6 -2 10 4 10 6 0 19 10 31 22 11 12 20 19 20 16 0 -3 17 10
37 28 20 19 40 34 44 34 12 0 20 32 11 44 -5 6 -14 25 -20 42 l-10 32 64 17
c35 9 64 21 64 27 0 5 6 8 13 7 6 -1 26 3 42 10 17 7 51 17 77 23 27 7 45 16
41 21 -4 6 0 8 10 4 9 -3 17 -2 19 4 2 5 17 11 33 14 17 2 57 14 89 25 33 11
66 20 74 20 9 0 12 3 9 7 -8 7 58 33 86 33 9 0 17 4 17 8 0 4 11 9 25 10 13 1
39 11 56 21 18 11 36 18 40 16 4 -3 22 1 40 9 19 7 40 11 48 8 8 -3 11 0 7 7
-5 7 1 11 14 11 13 0 19 4 14 12 -4 6 -3 8 4 4 11 -6 62 12 73 27 3 4 10 7 15
6 16 -5 74 12 74 21 0 5 16 12 35 16 19 3 35 9 35 13 0 4 27 15 60 25 33 10
58 21 56 25 -5 7 4 9 62 15 18 1 42 13 53 24 11 12 17 22 15 22 -3 0 6 16 19
36 40 58 32 103 -15 96 -37 -5 -37 4 0 48 17 19 30 42 30 52 0 10 4 18 10 18
5 0 9 3 8 8 -1 4 6 24 15 46 9 21 17 42 17 46 0 4 13 41 30 81 16 41 31 83 33
94 4 20 7 29 48 131 11 29 21 58 23 65 1 8 8 24 14 37 7 12 9 22 5 22 -4 0 -2
5 5 12 14 14 16 38 3 38 -4 0 -36 -78 -70 -172 -157 -437 -186 -497 -254 -538
l-32 -20 30 0 c17 1 49 5 73 9 40 8 42 7 36 -13 -3 -11 -20 -45 -37 -74 -24
-39 -34 -50 -41 -40 -7 11 -17 10 -58 -10 -136 -65 -520 -208 -1067 -398 -118
-41 -217 -76 -219 -78 -5 -6 39 -90 52 -98 8 -6 8 -8 0 -8 -6 0 -57 -36 -112
-80 l-101 -80 -103 70 c-57 39 -104 75 -106 80 -2 4 9 32 23 60 15 29 25 54
23 56 -3 2 -69 26 -149 53 -143 49 -310 108 -549 194 -260 93 -607 230 -624
247 -6 6 -14 3 -20 -6 -9 -12 -17 -6 -43 38 -17 29 -34 63 -37 74 -6 20 -4 21
36 13 24 -4 56 -8 73 -9 l30 0 -37 25 c-69 47 -93 100 -300 678 -10 26 -28 38
-28 17z"/>
<path d="M2584 4041 c2 -37 6 -73 10 -80 7 -10 -2 -9 -44 6 -8 4 -19 7 -25 8
-5 1 -12 3 -15 4 -9 5 -45 11 -85 16 -22 3 -47 8 -55 11 -40 15 -106 21 -122
13 -20 -11 -24 -29 -7 -29 5 0 7 5 3 11 -4 8 2 9 22 5 16 -4 43 -9 59 -11 93
-16 194 -39 242 -56 31 -10 58 -17 60 -15 3 2 -1 14 -7 26 -6 11 -11 44 -11
73 0 59 -6 87 -19 87 -5 0 -7 -31 -6 -69z"/>
<path d="M1869 4088 c-11 -43 -3 -122 12 -113 5 4 6 -1 3 -9 -4 -9 1 -18 10
-22 9 -3 16 -16 16 -28 0 -17 2 -18 10 -6 8 13 10 13 10 -1 0 -23 -34 -30 -59
-12 -12 8 -30 16 -41 18 -30 6 -109 76 -142 125 l-17 25 0 -24 c-1 -34 79
-108 158 -147 56 -28 68 -30 100 -21 20 6 38 12 40 14 3 2 -9 18 -25 36 -46
49 -64 83 -64 122 0 38 14 46 29 16 26 -48 234 -113 344 -109 l72 3 -32 17
c-25 14 -37 16 -62 7 -18 -6 -43 -8 -59 -3 -15 4 -34 9 -42 11 -8 3 -25 4 -38
4 -13 -1 -21 3 -18 8 5 8 -58 27 -76 23 -5 -1 -8 3 -8 9 0 5 -4 8 -9 5 -5 -3
-12 1 -15 10 -4 9 -9 14 -13 11 -3 -4 -12 1 -18 10 -10 14 -63 31 -66 21z"/>
<path d="M4079 4081 c-1 -3 -1 -9 0 -13 0 -5 -8 -8 -20 -8 -13 0 -18 -4 -13
-12 5 -8 2 -9 -10 -5 -10 4 -15 3 -11 -3 3 -6 -2 -10 -12 -10 -10 0 -30 -6
-44 -14 -14 -7 -47 -16 -72 -20 -26 -4 -49 -12 -53 -17 -3 -5 -27 -8 -54 -7
-26 2 -46 6 -43 11 7 11 -6 8 -40 -10 l-32 -18 72 -3 c110 -4 318 61 344 109
15 30 29 22 29 -16 0 -39 -18 -73 -64 -122 -16 -18 -28 -34 -25 -36 2 -2 20
-8 40 -14 32 -9 44 -7 100 21 76 37 159 113 159 145 0 19 -7 14 -41 -29 -22
-28 -56 -58 -75 -67 -19 -9 -34 -21 -34 -25 0 -5 -4 -7 -9 -3 -5 3 -15 -1 -23
-8 -15 -14 -78 -19 -78 -6 0 5 10 19 21 30 33 33 46 65 45 112 -1 39 -3 42
-28 43 -16 1 -29 -2 -29 -5z"/>
<path d="M4650 4016 c0 -2 7 -7 16 -10 8 -3 12 -2 9 4 -6 10 -25 14 -25 6z"/>
<path d="M2330 3950 c0 -5 7 -10 16 -10 8 0 12 5 9 10 -3 6 -10 10 -16 10 -5
0 -9 -4 -9 -10z"/>
<path d="M3645 3950 c-3 -5 1 -10 9 -10 9 0 16 5 16 10 0 6 -4 10 -9 10 -6 0
-13 -4 -16 -10z"/>
<path d="M4469 3888 c-5 -18 -6 -38 -1 -34 7 8 12 36 6 36 -2 0 -4 -1 -5 -2z"/>
<path d="M1496 3592 c-3 -5 1 -9 9 -9 8 0 12 4 9 9 -3 4 -7 8 -9 8 -2 0 -6 -4
-9 -8z"/>
<path d="M4486 3592 c-3 -5 1 -9 9 -9 8 0 12 4 9 9 -3 4 -7 8 -9 8 -2 0 -6 -4
-9 -8z"/>
<path d="M1733 3138 c-16 -21 -36 -104 -30 -124 3 -11 7 -41 9 -69 3 -58 39
-153 64 -172 10 -7 14 -13 9 -13 -5 0 0 -7 11 -15 10 -8 15 -15 11 -15 -13 0
44 -45 83 -65 19 -9 42 -23 50 -30 41 -35 191 -41 264 -11 20 8 36 13 36 10 0
-10 72 36 94 59 13 14 27 23 30 20 3 -4 6 0 6 8 0 8 9 21 21 29 27 20 73 114
66 135 -6 13 -38 31 -72 39 -5 2 -23 8 -38 14 -16 7 -33 12 -38 12 -6 0 -22 6
-38 14 -17 9 -33 11 -41 6 -12 -8 -12 -10 0 -14 8 -3 49 -17 90 -32 41 -14 85
-28 98 -31 27 -7 27 -13 1 -64 -32 -63 -97 -128 -164 -162 -56 -30 -67 -32
-160 -32 -93 0 -105 2 -167 33 -117 58 -192 167 -204 301 -5 59 16 168 32 164
5 -1 50 -18 99 -37 l90 -34 0 -59 c0 -66 25 -112 75 -138 41 -21 109 -19 147
5 36 22 70 67 58 78 -4 4 -10 1 -12 -6 -7 -19 -45 -53 -71 -63 -13 -5 -41 -9
-63 -9 -33 0 -46 7 -77 38 -34 34 -37 41 -35 92 2 68 -5 81 -53 96 -22 7 -64
22 -94 33 -64 24 -74 25 -87 9z"/>
<path d="M4178 3130 c-26 -10 -50 -15 -54 -11 -4 3 -4 1 -1 -5 4 -7 -14 -16
-48 -23 -31 -7 -53 -16 -50 -21 3 -4 -2 -11 -11 -14 -11 -4 -14 -12 -9 -24 11
-26 13 -72 3 -72 -5 0 -6 -4 -3 -10 3 -5 1 -10 -4 -10 -6 0 -11 -7 -11 -15 0
-8 -7 -15 -15 -15 -8 0 -15 -4 -15 -8 0 -13 -60 -13 -97 0 -17 6 -36 22 -42
35 -16 36 -52 48 -87 30 -17 -8 -46 -18 -67 -22 -20 -4 -37 -11 -37 -16 0 -5
-8 -9 -17 -9 -30 0 -66 -24 -69 -45 -2 -11 4 -30 12 -42 8 -13 11 -23 7 -23
-5 0 0 -5 10 -11 9 -5 17 -14 17 -20 0 -20 79 -99 99 -99 8 0 12 -3 8 -6 -9
-9 78 -53 121 -62 21 -4 70 -7 109 -6 62 1 83 6 140 35 57 28 169 119 147 119
-3 0 4 9 17 20 13 10 21 19 16 20 -4 0 5 24 20 53 23 45 27 64 27 142 1 99
-15 149 -49 152 -11 1 -41 -7 -67 -17z m92 -65 c31 -164 -48 -324 -198 -397
-62 -31 -74 -33 -167 -33 -90 0 -105 3 -155 28 -68 35 -123 87 -161 152 -35
60 -36 71 -6 78 12 2 62 19 112 37 59 22 90 29 93 21 2 -6 8 -9 13 -6 5 4 6 0
4 -7 -9 -24 40 -60 88 -65 75 -9 136 38 142 110 1 17 -1 40 -6 49 -7 13 0 20
39 34 26 9 76 29 112 44 36 15 68 25 71 23 4 -1 12 -32 19 -68z"/>
<path d="M1394 2896 c-57 -27 -127 -84 -118 -97 3 -5 2 -9 -3 -9 -21 0 -44
-90 -42 -161 2 -61 7 -80 30 -113 15 -23 25 -45 22 -51 -4 -5 -3 -7 2 -3 4 4
17 -2 29 -15 28 -30 89 -67 112 -67 10 0 27 -9 38 -19 12 -11 42 -30 68 -43
45 -23 88 -72 103 -117 3 -12 11 -21 17 -21 6 0 9 -2 7 -5 -5 -5 110 -130 120
-130 3 0 16 -10 29 -23 12 -12 27 -20 32 -17 6 4 10 -1 10 -9 0 -8 6 -21 13
-28 6 -7 34 -46 61 -86 54 -80 61 -88 72 -71 4 8 3 9 -4 5 -7 -4 -12 -1 -12 9
0 33 -128 199 -180 234 -28 19 -70 57 -93 84 -43 52 -107 146 -107 158 0 4
-18 14 -39 23 -22 8 -54 28 -73 44 -18 15 -52 34 -76 41 -96 27 -165 126 -164
235 1 109 38 163 166 243 l36 22 0 -21 c0 -12 21 -64 46 -116 76 -157 219
-281 393 -343 183 -65 393 -57 569 22 83 37 178 105 235 169 l46 51 118 -84
c65 -46 124 -87 131 -91 16 -9 32 1 161 103 l101 81 75 -76 c51 -52 79 -74 90
-70 9 3 14 2 10 -3 -11 -19 90 -76 195 -110 197 -65 446 -37 626 70 126 75
259 240 294 364 l12 41 47 -23 c129 -61 185 -218 122 -341 -27 -53 -91 -108
-143 -123 -24 -7 -57 -25 -73 -40 -17 -16 -44 -33 -62 -39 -22 -8 -42 -29 -69
-73 -54 -88 -117 -159 -177 -201 -38 -26 -71 -63 -116 -130 -35 -52 -61 -100
-59 -106 4 -12 128 161 128 178 0 6 11 13 24 16 14 3 40 21 58 39 67 65 128
136 138 159 15 33 60 93 71 94 5 1 12 3 17 4 4 1 10 2 15 1 4 0 7 4 7 10 0 5
5 7 12 3 7 -4 8 -3 4 4 -4 7 -3 12 3 12 6 0 18 9 28 19 16 18 47 27 93 30 13
1 13 2 0 11 -11 7 -11 10 -2 10 20 0 83 46 98 72 51 88 65 171 39 247 -33 101
-185 215 -220 167 -8 -10 -17 -35 -20 -57 -4 -21 -11 -39 -16 -39 -5 0 -8 -3
-7 -7 2 -8 -21 -54 -31 -63 -19 -16 -44 -52 -31 -45 8 4 -2 -7 -22 -24 -21
-18 -38 -39 -38 -47 0 -8 -4 -14 -8 -14 -5 0 -18 -8 -30 -17 -11 -10 -30 -26
-41 -35 -33 -28 -191 -105 -246 -119 -75 -21 -400 -16 -387 5 3 5 -2 7 -11 3
-9 -3 -17 -2 -19 3 -2 6 -15 11 -30 12 -16 1 -28 6 -28 9 0 4 -21 15 -46 25
-25 10 -51 22 -58 28 -6 6 -36 30 -66 53 -30 23 -72 62 -93 87 -40 49 -62 53
-101 18 -12 -11 -61 -50 -110 -87 l-89 -67 -36 17 c-21 9 -53 31 -73 48 -42
38 -67 56 -90 63 -10 4 -18 10 -18 14 0 4 -14 13 -30 20 -28 12 -32 11 -60
-19 -17 -17 -30 -34 -30 -39 0 -4 -12 -15 -27 -25 -31 -18 -86 -63 -65 -52 6
3 12 4 12 1 0 -7 -154 -81 -163 -78 -5 1 -5 -3 -1 -9 5 -9 2 -10 -9 -6 -9 3
-19 2 -22 -3 -4 -6 -17 -10 -31 -10 -14 0 -23 -3 -21 -7 7 -11 -34 -14 -203
-16 -145 -1 -182 5 -275 44 -16 6 -35 13 -42 15 -6 1 -27 14 -46 28 -19 14
-42 26 -51 26 -9 0 -14 5 -11 10 3 6 3 10 -2 10 -4 0 -20 10 -35 23 -15 12
-37 30 -50 40 -12 9 -18 17 -14 17 5 0 -3 11 -18 25 -14 13 -27 28 -29 32 -1
5 -6 7 -12 5 -5 -2 -7 0 -3 4 5 4 -3 22 -17 40 -14 18 -25 39 -25 48 0 8 -4
17 -9 20 -4 3 -14 26 -21 51 -18 64 -27 68 -86 41z"/>
<path d="M1355 2829 c-4 -6 -5 -12 -2 -15 2 -3 7 2 10 11 7 17 1 20 -8 4z"/>
<path d="M4580 2820 c-8 -5 -10 -10 -5 -10 6 0 17 5 25 10 8 5 11 10 5 10 -5
0 -17 -5 -25 -10z"/>
<path d="M2805 2593 c3 -3 0 -11 -5 -18 -7 -8 -5 -12 4 -12 14 0 16 22 3 32
-4 3 -5 2 -2 -2z"/>
<path d="M3370 2490 c-9 -6 -10 -10 -3 -10 6 0 15 5 18 10 8 12 4 12 -15 0z"/>
<path d="M2540 2420 c-9 -6 -10 -10 -3 -10 6 0 15 5 18 10 8 12 4 12 -15 0z"/>
<path d="M4430 2376 c0 -2 7 -7 16 -10 8 -3 12 -2 9 4 -6 10 -25 14 -25 6z"/>
<path d="M1736 2163 c-6 -14 -5 -15 5 -6 7 7 10 15 7 18 -3 3 -9 -2 -12 -12z"/>
<path d="M4006 2072 c-3 -5 1 -9 9 -9 8 0 12 4 9 9 -3 4 -7 8 -9 8 -2 0 -6 -4
-9 -8z"/>
<path d="M1950 2041 c0 -23 43 -197 51 -205 5 -6 6 17 3 52 -3 34 -3 62 0 62
3 0 12 -12 20 -27 8 -16 29 -43 48 -62 18 -19 26 -31 18 -26 -8 5 1 -7 20 -26
71 -71 41 -21 -82 141 -43 55 -78 97 -78 91z"/>
<path d="M3950 1919 c-52 -71 -97 -129 -99 -129 -2 0 -1 37 2 83 4 45 4 75 0
67 -24 -58 -181 -250 -205 -250 -4 0 -8 10 -8 23 0 41 -15 49 -33 17 -16 -26
-115 -99 -196 -142 -17 -9 -31 -23 -31 -30 0 -9 3 -9 12 0 7 7 18 12 25 12 17
0 143 82 167 109 22 25 42 27 50 6 6 -16 36 -21 36 -6 0 5 18 22 40 38 22 15
40 31 40 36 0 6 34 48 67 82 7 7 9 16 5 20 -4 5 -2 5 4 2 6 -4 9 -17 7 -30 -3
-13 2 -28 10 -35 11 -10 20 -7 43 15 16 15 29 30 29 34 0 5 17 26 37 49 21 22
38 44 39 48 0 4 3 9 6 12 3 3 3 -22 -1 -55 -3 -33 -2 -67 4 -75 7 -12 9 -11 8
5 0 11 9 64 21 118 13 55 21 100 19 101 -2 2 -46 -55 -98 -125z"/>
<path d="M1910 2021 c0 -6 4 -13 10 -16 6 -3 7 1 4 9 -7 18 -14 21 -14 7z"/>
<path d="M2033 1987 c-3 -7 -3 -9 2 -5 4 4 14 3 21 -3 8 -7 14 -7 19 1 3 5 5
10 3 11 -27 6 -39 5 -45 -4z"/>
<path d="M3933 1984 c0 -9 4 -11 12 -4 7 5 14 9 16 7 2 -1 3 0 1 2 -7 11 -29
7 -29 -5z"/>
<path d="M2144 1896 c3 -27 6 -59 6 -72 0 -13 5 -24 11 -24 7 0 9 10 7 24 -3
14 -1 31 4 38 8 10 9 10 6 -2 -5 -15 10 -36 52 -76 14 -13 21 -24 16 -24 -5 0
9 -14 30 -31 22 -17 43 -37 47 -45 11 -20 35 -17 47 6 10 20 12 19 43 -10 18
-17 46 -38 62 -47 17 -9 32 -19 35 -22 9 -13 80 -53 80 -46 0 4 7 2 15 -5 12
-10 20 -10 38 -1 26 14 83 -1 72 -19 -4 -6 1 -7 11 -3 13 5 15 3 9 -8 -4 -8
-5 -11 0 -7 4 4 21 -4 38 -18 16 -14 32 -22 36 -18 10 10 -60 65 -133 106 -69
38 -72 39 -55 7 7 -13 17 -18 27 -15 14 5 14 4 -1 -8 -20 -16 -12 -20 -157 73
-41 27 -84 62 -95 79 -21 33 -35 27 -35 -15 0 -13 -4 -23 -8 -23 -15 0 -111
106 -162 180 l-52 75 6 -49z"/>
<path d="M2436 1752 c-2 -4 4 -8 14 -8 10 0 16 4 14 8 -3 4 -9 8 -14 8 -5 0
-11 -4 -14 -8z"/>
<path d="M2625 1670 c-16 -7 -17 -9 -3 -9 9 -1 20 4 23 9 7 11 7 11 -20 0z"/>
<path d="M3370 1663 c8 -3 19 -11 23 -17 6 -7 7 -6 4 4 -2 8 -12 16 -23 17
-13 2 -15 1 -4 -4z"/>
<path d="M3322 1591 c-34 -20 -78 -49 -97 -64 -38 -30 -49 -60 -12 -33 12 9
37 23 55 31 17 9 32 18 32 21 0 3 -5 2 -12 -2 -6 -4 -8 -3 -4 4 11 18 67 26
78 11 7 -11 8 -11 6 1 -1 8 4 26 11 38 7 13 11 25 9 26 -2 2 -31 -13 -66 -33z"/>
<path d="M2810 1568 c0 -55 16 -83 25 -46 4 15 4 36 0 46 -4 14 -1 20 7 18 18
-2 78 -39 78 -47 0 -4 16 -13 36 -19 41 -14 96 -6 115 16 7 8 18 13 26 10 8
-3 11 -2 8 4 -6 9 28 32 54 36 10 2 12 -6 8 -30 -6 -38 6 -68 17 -41 3 9 6 34
6 56 0 35 -2 39 -26 39 -14 0 -51 -18 -83 -40 -31 -22 -68 -40 -81 -40 -13 0
-50 18 -81 40 -32 22 -69 40 -83 40 -24 0 -26 -3 -26 -42z"/>
<path d="M5984 265 c0 -88 2 -123 3 -77 2 46 2 118 0 160 -1 42 -3 5 -3 -83z"/>
</g>
</svg>
