<?xml version="1.0" standalone="no"?>
<!DOCTYPE svg PUBLIC "-//W3C//DTD SVG 20010904//EN"
 "http://www.w3.org/TR/2001/REC-SVG-20010904/DTD/svg10.dtd">
<svg version="1.0" xmlns="http://www.w3.org/2000/svg"
 width="600.000000pt" height="166.000000pt" viewBox="0 0 600.000000 166.000000"
 preserveAspectRatio="xMidYMid meet">
<g transform="translate(0.000000,166.000000) scale(0.100000,-0.100000)"
fill="#FFBF00" stroke="none">
<path d="M1880 1088 c-20 -7 -27 -32 -12 -42 9 -5 8 -423 -1 -433 -4 -3 -7
-16 -6 -27 0 -21 0 -21 9 0 5 12 13 25 19 29 7 4 11 77 11 212 0 178 -2 209
-17 225 -15 17 -14 18 34 18 l49 0 17 -122 c10 -68 17 -134 17 -147 0 -54 14
-5 26 91 25 192 19 178 70 178 45 0 45 0 30 -22 -23 -33 -24 -419 -1 -438 8
-7 15 -15 15 -19 0 -5 -65 -6 -99 -2 -2 1 1 7 7 14 11 13 28 346 17 335 -4 -3
-16 -84 -28 -179 -12 -95 -27 -174 -33 -176 -11 -4 -24 70 -45 250 -7 59 -15
107 -18 107 -3 0 -5 -74 -3 -165 2 -96 7 -165 12 -165 6 0 10 -7 10 -15 0 -20
51 -40 61 -24 4 6 12 8 18 4 20 -12 95 -13 106 -1 12 13 13 31 3 42 -5 4 -8
97 -8 207 0 110 2 198 4 196 2 -2 5 -92 7 -199 3 -188 3 -196 25 -216 13 -12
20 -25 16 -30 -4 -4 -2 -4 5 0 6 3 14 2 18 -4 16 -26 106 8 124 47 6 13 11 80
11 149 0 73 4 123 9 120 13 -8 42 4 36 14 -3 5 -1 11 5 15 6 4 10 -35 11 -112
1 -65 3 -129 4 -143 2 -14 -3 -35 -11 -47 -13 -20 -12 -24 10 -38 23 -16 106
-18 106 -2 0 4 7 7 15 7 8 0 15 -4 15 -10 0 -15 78 -12 83 3 3 9 7 9 18 1 8
-7 44 -11 89 -9 41 1 80 -1 85 -5 6 -4 19 -4 30 1 11 4 16 8 10 8 -5 1 -3 6 5
11 10 6 -3 9 -42 7 -60 -3 -69 2 -43 23 12 10 15 47 15 218 0 177 -2 208 -17
224 -15 17 -14 18 30 18 l46 0 16 -72 c8 -40 22 -107 29 -148 l14 -75 1 129
c1 107 -2 133 -16 148 -15 17 -14 18 37 18 51 0 52 -1 37 -18 -15 -16 -17 -48
-17 -239 0 -214 -1 -221 -21 -226 -25 -7 -21 -18 -64 192 -20 96 -37 176 -38
178 -2 1 -1 -75 1 -170 4 -161 9 -186 33 -187 4 0 3 16 -1 35 -4 20 -4 35 1
35 5 0 9 -11 9 -25 0 -62 51 -105 85 -71 13 13 16 42 16 172 0 133 2 154 14
144 11 -9 18 -9 30 4 9 9 14 19 11 24 -2 4 -1 14 5 22 5 10 9 -45 9 -148 0
-111 -4 -168 -12 -182 -19 -29 1 -43 68 -47 52 -3 56 -2 43 13 -10 12 -25 15
-61 12 -47 -5 -62 3 -33 19 12 7 15 47 17 221 3 190 1 212 -13 212 -12 0 -20
-17 -29 -62 -21 -101 -29 -101 -30 0 l0 92 100 0 100 0 0 -92 c0 -50 -3 -88
-7 -84 -5 4 -15 37 -23 74 -11 48 -20 68 -33 70 -16 3 -17 -13 -17 -206 0
-206 0 -209 23 -230 18 -17 24 -19 24 -7 0 8 -4 15 -9 15 -5 0 -6 5 -3 10 3 5
2 10 -4 10 -6 0 -9 62 -8 160 0 88 2 160 4 160 1 0 9 -16 17 -35 29 -69 56
-31 56 77 0 96 -8 104 -115 101 -44 -1 -97 -4 -118 -7 -25 -4 -36 -2 -32 4 6
10 -48 5 -67 -6 -4 -3 -14 -2 -20 3 -18 11 -69 12 -90 1 -18 -9 -24 -39 -11
-52 4 -4 9 -97 10 -206 1 -164 -1 -199 -13 -204 -11 -4 -14 4 -14 32 0 20 -5
64 -10 97 -6 33 -17 110 -25 170 -19 137 -30 165 -61 165 -28 0 -43 -30 -48
-97 -6 -79 -24 -72 -23 7 2 63 -1 74 -18 85 -22 13 -154 13 -194 1 -14 -5 -21
-4 -18 1 4 6 -13 8 -41 6 -55 -5 -70 -5 -97 0 -11 2 -31 1 -45 -3 -14 -4 -35
-3 -48 1 -17 7 -21 6 -16 -4 6 -9 4 -9 -7 -1 -10 8 -22 8 -46 -2 -30 -13 -33
-18 -33 -58 0 -25 -4 -48 -10 -51 -6 -4 -10 5 -10 20 0 29 -25 95 -37 96 -43
4 -66 3 -83 -3z m683 -40 c-8 -49 7 -164 19 -147 10 15 6 -32 -17 -211 -4 -30
-13 -63 -20 -73 -13 -18 -14 -18 -22 0 -7 14 -10 246 -4 297 1 4 10 -2 20 -15
l20 -24 -10 45 c-21 95 -30 120 -44 120 -22 0 -22 -412 0 -430 25 -21 17 -25
-36 -24 -54 2 -72 10 -45 20 14 5 16 31 16 220 0 178 -2 214 -14 214 -10 0
-20 -25 -32 -75 -10 -41 -20 -72 -23 -71 -3 2 -5 43 -3 90 l3 85 97 4 c53 1
98 4 99 5 1 1 -1 -12 -4 -30z m-216 4 c-15 -16 -17 -47 -17 -220 0 -189 -1
-203 -20 -222 -25 -25 -86 -27 -112 -3 -16 15 -18 35 -18 221 0 177 -2 208
-17 224 -15 17 -12 18 92 18 104 0 107 -1 92 -18z m330 -4 c3 -39 55 -412 59
-423 2 -5 12 -21 21 -35 17 -24 17 -24 0 -11 -11 9 -31 12 -57 8 -43 -6 -47
-2 -26 22 8 10 12 30 9 54 -5 33 -8 37 -33 37 -24 0 -28 -4 -34 -42 -7 -43 3
-66 24 -53 8 5 8 11 2 17 -11 11 -4 48 9 48 15 0 10 -57 -7 -71 -15 -12 -94
-21 -94 -10 0 2 6 12 14 20 9 10 24 93 40 216 33 249 33 245 54 245 11 0 18
-8 19 -22z m190 -360 c-3 -8 -6 -5 -6 6 -1 11 2 17 5 13 3 -3 4 -12 1 -19z"/>
<path d="M2241 1046 c-8 -9 -11 -75 -9 -217 3 -190 4 -204 22 -207 10 -2 22 2
27 10 14 21 11 402 -3 416 -15 15 -23 15 -37 -2z m29 -384 c0 -15 -2 -15 -10
-2 -13 20 -13 33 0 25 6 -3 10 -14 10 -23z"/>
<path d="M2641 870 c-1 -19 -4 -59 -7 -87 -6 -50 -5 -53 15 -53 21 0 22 3 15
63 -4 34 -11 73 -15 87 -7 23 -7 22 -8 -10z"/>
<path d="M3352 1080 c-59 -36 -67 -67 -67 -245 0 -137 3 -166 19 -200 22 -45
41 -67 50 -58 3 4 6 1 6 -5 0 -6 12 -9 28 -7 15 2 33 4 41 4 8 1 11 4 8 8 -4
3 1 16 11 27 20 23 40 97 44 163 2 23 6 39 10 35 7 -7 18 -88 23 -161 2 -26
11 -51 22 -62 17 -17 20 -18 41 -3 13 9 22 26 23 42 0 15 4 36 9 47 8 17 9 16
11 -10 1 -16 2 -38 2 -47 0 -10 4 -18 8 -18 5 0 9 -7 9 -15 0 -19 34 -19 50 0
7 9 14 37 17 63 2 26 8 81 14 122 5 41 12 97 14 125 9 101 15 130 25 133 5 2
7 9 3 15 -3 7 -3 9 1 5 13 -11 7 -420 -6 -435 -13 -17 -1 -32 30 -38 12 -2 27
-7 34 -11 7 -4 8 -3 4 5 -6 8 7 10 48 7 37 -3 60 0 69 8 13 14 40 10 31 -5 -3
-5 0 -9 5 -9 6 0 11 5 11 10 0 6 9 10 20 10 11 0 20 -4 20 -10 0 -20 40 -9 72
19 43 38 46 90 11 191 -14 41 -29 80 -33 85 -4 6 -11 26 -14 45 l-6 35 14 -30
14 -30 1 30 c1 39 -39 120 -59 120 -29 0 -15 -75 35 -190 55 -126 64 -197 31
-234 -20 -22 -60 -28 -71 -11 -4 7 -12 7 -25 0 -10 -5 -20 -10 -22 -10 -2 0
-3 36 -4 80 -1 67 -4 83 -20 95 -16 11 -21 11 -36 -1 -9 -9 -19 -31 -22 -49
-4 -19 -11 -37 -16 -40 -6 -4 -10 61 -10 174 0 151 3 182 16 196 12 12 13 19
5 29 -14 17 -54 29 -44 14 4 -7 1 -8 -8 -2 -22 13 -42 14 -58 1 -12 -10 -13
-9 -6 3 7 13 6 13 -7 2 -10 -8 -18 -9 -22 -3 -4 5 -21 8 -39 5 -40 -7 -45 -7
-83 -1 -17 3 -36 2 -43 -2 -7 -5 -30 -5 -52 -1 -26 5 -47 3 -65 -6 -19 -10
-30 -11 -39 -4 -23 19 -52 19 -83 0z m218 -20 c0 -5 -5 -10 -10 -12 -12 -4 10
-238 22 -238 4 0 8 26 9 58 0 31 4 82 9 112 6 44 4 59 -8 73 -14 16 -12 17 33
17 45 0 47 -1 33 -17 -14 -16 -14 -30 1 -138 l17 -120 13 119 c9 85 10 121 2
129 -20 20 -11 27 36 27 44 0 45 -1 30 -18 -13 -14 -22 -67 -37 -203 -31 -275
-29 -269 -44 -263 -14 5 -32 99 -43 219 -7 83 -23 102 -24 28 0 -27 -6 -93
-12 -148 -9 -74 -16 -100 -27 -100 -11 0 -20 48 -42 215 -24 183 -34 232 -55
270 -2 3 19 3 47 2 27 -2 50 -8 50 -12z m307 -8 c-15 -16 -17 -47 -17 -225 0
-198 1 -207 19 -207 15 0 23 13 36 58 28 103 34 104 34 5 l1 -91 -82 -4 c-96
-4 -107 -1 -79 19 20 14 21 23 21 222 0 182 -2 210 -17 222 -14 12 -10 15 38
19 30 3 56 4 58 3 2 -2 -3 -11 -12 -21z m-449 -5 c31 -33 45 -123 40 -257 -5
-129 -24 -186 -63 -196 -73 -18 -98 33 -103 209 -4 141 7 209 40 245 27 28 59
28 86 -1z m635 -70 c3 -8 1 -20 -4 -28 -6 -10 -9 -7 -9 14 0 29 5 35 13 14z"/>
<path d="M3369 1019 c-15 -27 -20 -298 -6 -361 9 -42 31 -50 41 -15 13 48 18
236 8 306 -12 85 -24 104 -43 70z m18 -61 c-3 -7 -5 -2 -5 12 0 14 2 19 5 13
2 -7 2 -19 0 -25z m2 -150 c-2 -117 -3 -124 -9 -60 -3 40 -5 91 -4 115 2 23 3
50 3 60 1 9 3 17 6 17 3 0 4 -60 4 -132z"/>
<path d="M3991 1070 c-27 -28 -31 -38 -31 -86 0 -49 31 -149 82 -264 16 -35
18 -49 7 -56 -5 -3 -9 2 -9 10 0 9 -4 16 -9 16 -5 0 -7 8 -4 18 2 10 -5 29
-16 43 l-20 24 10 -43 c17 -76 36 -112 60 -112 20 0 21 4 17 48 -3 26 -24 90
-48 142 -54 119 -66 213 -31 245 19 16 26 17 54 7 20 -8 35 -8 41 -2 20 20 24
8 22 -85 -1 -82 1 -93 12 -78 14 19 13 166 -1 180 -4 3 -22 7 -40 8 -17 1 -39
5 -48 9 -11 5 -27 -3 -48 -24z"/>
<path d="M1887 584 c-16 -16 -5 -24 34 -24 28 0 39 4 37 13 -5 13 -60 22 -71
11z"/>
<path d="M2283 553 c4 -6 -5 -20 -18 -33 -27 -25 -28 -44 -3 -78 23 -34 88
-22 88 16 0 24 -12 38 -36 46 -24 7 -38 -13 -28 -39 9 -22 26 -18 19 4 -4 14
-1 19 10 17 8 -1 15 -5 15 -9 0 -4 0 -14 0 -23 0 -11 -8 -14 -27 -12 -25 3
-28 7 -28 38 0 33 2 35 33 35 17 0 32 3 32 6 0 11 -31 20 -42 12 -6 -3 -8 -1
-4 5 3 6 1 14 -5 18 -7 4 -9 3 -6 -3z"/>
<path d="M2430 540 c0 -5 -10 -9 -22 -7 -21 2 -23 -2 -22 -51 1 -30 6 -57 10
-62 5 -4 24 -3 43 2 27 7 32 13 28 30 -3 12 -2 29 3 38 7 13 4 24 -9 39 -20
23 -31 27 -31 11z m30 -29 c-1 -13 -27 -40 -33 -34 -4 3 -7 -1 -7 -11 0 -13 5
-16 20 -11 11 4 20 2 20 -4 0 -6 -13 -11 -29 -11 -27 0 -29 3 -32 43 l-4 42
33 -3 c17 -2 32 -7 32 -11z"/>
<path d="M2420 500 c0 -5 5 -10 10 -10 6 0 10 5 10 10 0 6 -4 10 -10 10 -5 0
-10 -4 -10 -10z"/>
<path d="M2840 539 c0 -6 -7 -8 -16 -5 -8 3 -12 2 -9 -3 3 -5 1 -12 -5 -16
-17 -11 -11 -60 10 -83 46 -49 109 35 67 89 -15 20 -47 32 -47 18z m35 -59 c0
-31 -3 -35 -25 -35 -19 0 -26 6 -28 23 -5 36 5 54 30 50 19 -2 23 -9 23 -38z"/>
<path d="M2838 498 c-7 -20 3 -49 16 -45 15 5 14 49 0 54 -7 2 -14 -2 -16 -9z"/>
<path d="M3103 535 c-31 -13 -45 -35 -23 -35 6 0 10 5 10 10 0 6 16 10 35 10
27 0 35 -4 34 -17 0 -11 -3 -13 -6 -5 -2 6 -9 12 -14 12 -9 0 -6 -41 5 -59 3
-5 -3 -11 -14 -14 -11 -3 -23 -1 -26 4 -3 5 0 9 5 9 6 0 11 14 11 31 0 27 -2
30 -15 19 -16 -14 -20 -47 -6 -68 5 -9 17 -11 35 -6 23 5 27 11 23 30 -2 13
-1 24 3 24 17 0 16 39 -1 54 -11 9 -20 16 -22 16 -1 -1 -17 -7 -34 -15z"/>
<path d="M3813 543 c4 -6 1 -14 -5 -16 -7 -3 -4 -6 7 -6 18 -1 20 -6 17 -36
-4 -37 12 -49 23 -15 7 22 -5 50 -31 71 -10 8 -15 9 -11 2z"/>
<path d="M2014 528 c-5 -7 -9 -30 -10 -51 -1 -28 4 -40 17 -48 11 -5 19 -6 19
-2 0 4 5 2 11 -4 9 -9 15 -8 25 2 18 18 18 55 0 55 -9 0 -16 12 -18 27 -3 30
-31 43 -44 21z m28 -43 c-4 -36 5 -44 26 -23 9 9 12 8 12 -5 0 -12 -8 -17 -27
-17 -26 0 -28 3 -28 40 0 22 5 40 10 40 7 0 9 -15 7 -35z"/>
<path d="M2140 530 c-18 -11 -18 -89 0 -100 21 -14 56 -12 67 3 9 12 10 83 2
92 -9 9 -57 13 -69 5z m57 -50 c0 -36 -2 -40 -26 -40 -24 0 -26 4 -26 40 0 36
2 40 26 40 24 0 26 -4 26 -40z"/>
<path d="M2160 500 c0 -5 7 -10 15 -10 8 0 15 5 15 10 0 6 -7 10 -15 10 -8 0
-15 -4 -15 -10z"/>
<path d="M2160 460 c0 -5 7 -10 15 -10 8 0 15 5 15 10 0 6 -7 10 -15 10 -8 0
-15 -4 -15 -10z"/>
<path d="M2512 524 c-16 -17 -10 -66 8 -72 10 -4 12 4 7 31 -4 29 -2 36 14 40
10 3 17 1 13 -4 -3 -5 0 -17 5 -26 9 -16 10 -16 11 5 0 12 5 22 11 22 7 0 9
-14 5 -37 -3 -21 -5 -40 -6 -43 0 -3 -9 9 -20 25 -17 26 -20 27 -20 9 0 -11 8
-28 19 -38 16 -15 19 -15 31 -1 15 18 20 84 7 92 -20 12 -73 11 -85 -3z"/>
<path d="M2646 531 c-8 -16 -5 -74 4 -91 16 -30 64 -27 78 5 16 36 15 60 -4
76 -17 14 -72 21 -78 10z m75 -32 c14 -27 -6 -59 -36 -59 -21 0 -25 5 -25 29
0 16 -2 36 -5 44 -9 22 53 9 66 -14z"/>
<path d="M2680 480 c0 -21 4 -30 13 -27 6 2 12 14 12 27 0 13 -6 25 -12 28 -9
2 -13 -7 -13 -28z"/>
<path d="M2939 533 c-1 -5 -3 -27 -4 -50 -2 -31 1 -40 11 -36 16 6 19 63 3 63
-5 0 -8 4 -5 8 7 11 66 2 66 -10 0 -5 -9 -6 -20 -3 -11 4 -20 2 -20 -4 0 -6 7
-11 15 -11 8 0 15 -4 15 -10 0 -5 -7 -10 -16 -10 -13 0 -14 -3 -5 -14 9 -11 6
-15 -15 -20 -14 -4 -24 -9 -21 -12 2 -3 16 -2 30 1 21 6 29 16 41 55 1 3 5 11
9 18 5 7 3 18 -5 25 -14 14 -77 22 -79 10z"/>
<path d="M3216 523 c-8 -19 -8 -67 0 -87 8 -21 40 -21 48 0 9 24 7 44 -4 44
-5 0 -10 -9 -10 -20 0 -11 -6 -20 -12 -20 -8 0 -13 14 -13 37 0 41 17 56 52
47 15 -4 18 -12 15 -40 -2 -19 0 -34 6 -34 14 0 13 68 -1 77 -23 14 -75 12
-81 -4z"/>
<path d="M3364 532 c-6 -4 -15 -26 -19 -49 -6 -40 -5 -42 25 -58 30 -15 34
-15 48 -1 19 19 25 101 7 86 -7 -6 -20 -8 -29 -4 -9 3 -16 1 -16 -5 0 -6 7
-11 15 -11 8 0 15 -4 15 -10 0 -5 -7 -7 -15 -4 -9 4 -15 0 -15 -10 0 -19 21
-21 39 -3 10 10 11 9 6 -5 -5 -11 -18 -18 -34 -18 -24 0 -26 3 -26 40 0 37 2
40 28 40 15 0 27 4 27 8 0 10 -42 13 -56 4z"/>
<path d="M3506 518 c-28 -45 -7 -95 39 -94 33 1 48 18 51 58 4 50 -63 77 -90
36z m64 -1 c0 -1 4 -17 9 -35 6 -20 6 -30 0 -27 -5 4 -9 1 -9 -4 0 -6 -11 -11
-25 -11 -29 0 -45 41 -25 65 10 12 50 22 50 12z"/>
<path d="M3530 481 c0 -21 5 -31 16 -31 11 0 14 8 12 27 -4 39 -28 42 -28 4z"/>
<path d="M3631 527 c-6 -6 -7 -17 -2 -26 5 -9 7 -24 6 -33 -2 -10 1 -18 6 -18
6 0 8 -4 4 -9 -6 -10 15 -18 57 -20 23 0 29 6 43 43 10 25 15 50 13 58 -6 16
-112 20 -127 5z m100 -52 c-17 -47 -31 -50 -31 -7 0 21 -2 24 -10 12 -8 -11
-9 -9 -8 13 3 33 20 30 28 -4 6 -23 6 -24 12 -2 3 12 1 26 -5 32 -7 7 -4 8 10
5 19 -5 19 -7 4 -49z m-64 33 c0 -7 4 -25 8 -40 4 -17 3 -28 -3 -28 -5 0 -14
18 -20 40 -7 30 -7 40 2 40 7 0 13 -6 13 -12z"/>
<path d="M3929 530 c-20 -13 -18 -92 3 -107 32 -24 59 2 62 60 2 41 -33 66
-65 47z m57 -21 c4 -8 0 -9 -15 -4 -25 8 -27 -2 -5 -26 9 -10 13 -23 9 -28 -8
-14 -42 -14 -51 0 -4 8 0 9 15 4 25 -8 29 10 4 23 -21 12 -10 42 16 42 11 0
23 -5 27 -11z"/>
<path d="M3250 505 c0 -8 5 -15 10 -15 6 0 10 7 10 15 0 8 -4 15 -10 15 -5 0
-10 -7 -10 -15z"/>
<path d="M3794 474 c1 -21 7 -39 14 -42 7 -2 9 -9 5 -15 -4 -8 -1 -7 9 1 13
10 17 10 20 0 6 -16 41 17 44 41 2 14 1 13 -10 -1 -8 -11 -26 -18 -47 -18 -23
0 -29 3 -21 9 16 9 12 53 -4 58 -7 2 -10 -11 -10 -33z"/>
<path d="M2518 428 c9 -9 15 -9 24 0 9 9 7 12 -12 12 -19 0 -21 -3 -12 -12z"/>
<path d="M3270 430 c0 -5 7 -10 15 -10 8 0 15 5 15 10 0 6 -7 10 -15 10 -8 0
-15 -4 -15 -10z"/>
</g>
</svg>
